# xmcd CD database file
#
# Track frame offsets:
#	150
#	9315
#	58916
#	79993
#	119507
#	175546
#	183676
#	222012
#	230695
#
# Disc length: 3738 seconds
#
# Revision: 0
# Processed by: cddbd v1.5.1PL0 Copyright (c) Steve Scherf et al.
# Submitted via: CDex 1.51
#
DISCID=780e9809
DTITLE=窦唯 - 两得
DYEAR=2001
DGENRE=New Age
TTITLE0=片头曲
TTITLE1=一对天使
TTITLE2=追车人
TTITLE3=幽
TTITLE4=加水
TTITLE5=恍惚白昼
TTITLE6=往东向西奔北
TTITLE7=南飞鸟
TTITLE8=2000不一定
EXTD=YEAR: 2001
EXTT0=
EXTT1=
EXTT2=
EXTT3=
EXTT4=
EXTT5=
EXTT6=
EXTT7=
EXTT8=
PLAYORDER=
